# xmcd CD database file
#
# Track frame offsets:
#	150
#	18529
#	38333
#	56307
#	71653
#	89069
#	109328
#	132954
#	154092
#	168865
#	183101
#	193801
#	217032
#	232830
#	250492
#	265278
#	278767
#	296816
#
# Disc length: 4251 seconds
#
# Revision: 0
# Processed by: cddbd v1.5.2PL0 Copyright (c) Steve Scherf et al.
# Submitted via: CDex 1.70beta2
#
DISCID=07109912
DTITLE=Hot Jazz Company - Jazzzeit
DYEAR=2007
DGENRE=Jazz
TTITLE0=Undecided
TTITLE1=Egyptian phantasy
TTITLE2=That's a plenty
TTITLE3=Dark eyes
TTITLE4=Working man blues
TTITLE5=Mack the Knife
TTITLE6=Re-enlistment blues
TTITLE7=St. Louis blues
TTITLE8=Bourbon Street parade
TTITLE9=Hush-A-Bye
TTITLE10=Some of these days
TTITLE11=Really the blues
TTITLE12=Shine
TTITLE13=Georgia on my mind
TTITLE14=Am Sonntag will mein Süßer mit mir segeln gehn
TTITLE15=Blue monk
TTITLE16=Long handled shovel blues
TTITLE17=Ain't she sweet
EXTD=YEAR: 2007
EXTT0=
EXTT1=
EXTT2=
EXTT3=
EXTT4=
EXTT5=
EXTT6=
EXTT7=
EXTT8=
EXTT9=
EXTT10=
EXTT11=
EXTT12=
EXTT13=
EXTT14=
EXTT15=
EXTT16=
EXTT17=
PLAYORDER=
